<svg xmlns="http://www.w3.org/2000/svg" width="20" height="20" viewBox="0 0 20 20">
    <g fill="none" fill-rule="evenodd">
        <path fill="#FFFFFF" d="M-82-1128h1920v11698H-82z"/>
        <path d="M-2-2h24v24H-2z"/>
        <path fill="#0084FF" d="M1.845.133L19.06 8.518a1.638 1.638 0 0 1 0 2.964L1.845 19.867C.998 20.28 0 19.68 0 18.757l.734-6.126a1.26 1.26 0 0 1 1.117-1.09l9.079-.923c.762-.078.762-1.158 0-1.236l-9.079-.924a1.259 1.259 0 0 1-1.117-1.09L0 1.244C0 .32.998-.28 1.845.133"/>
    </g>
</svg>
